<svg width="165" height="99" viewBox="0 0 165 99" fill="none" xmlns="http://www.w3.org/2000/svg">
<g clip-path="url(#clip0_5_39)">
<path d="M79.0959 31.2368C81.9899 31.2368 84.8044 31.502 87.486 31.9925L93.8716 25.3501C89.411 23.8121 84.3928 22.937 79.0959 22.937C70.095 22.937 61.9173 25.4429 55.8503 29.5265L61.4128 34.7901C66.5504 32.5361 72.6041 31.2368 79.0959 31.2368Z" fill="#98989A"/>
<path d="M79.0954 22.937C84.3923 22.937 89.3972 23.7988 93.8711 25.3501L100.814 18.1375C94.3357 15.5919 86.9545 14.1334 79.1087 14.1334C67.4129 14.1334 56.7393 17.3552 48.5881 22.6454L55.8632 29.5398C61.9301 25.4562 70.1078 22.9503 79.1087 22.9503L79.0954 22.937Z" fill="white"/>
<path d="M45.7736 51.1643C46.3577 48.7778 47.4331 46.5239 48.9199 44.429L46.1188 41.605C45.5612 43.3418 45.2559 45.145 45.2559 47.0144C45.2559 48.4331 45.4284 49.812 45.7603 51.1643H45.7736Z" fill="#98989A"/>
<path d="M25.1167 66.7828L23.9485 72.8552L35.631 67.8302C34.8876 66.279 34.7548 64.2637 34.33 62.6196L25.13 66.7695L25.1167 66.7828Z" fill="#98989A"/>
<path d="M16.8993 0.68944L-0.000488281 93.1274L7.9914 93.7771L24.7319 0L16.8993 0.68944Z" fill="#98989A"/>
<path d="M73.7325 53.8824V46.4046L61.4526 34.7769L55.8901 29.5133L48.6151 22.6189L24.7058 0L7.96533 93.7771L43.3845 78.2249C39.8532 75.1092 37.3574 71.7946 35.4989 67.8833L23.9624 72.8287L25.1174 66.7829L32.5915 27.8825L33.2155 24.621L39.3886 30.8259L47.3274 38.8075L50.7392 42.2415L64.7449 54.2934L51.1375 60.5249C54.6688 64.0516 58.8506 67.1541 64.4927 68.9042L81.4589 61.2939L73.7192 53.8824H73.7325Z" fill="#ED1C24"/>
<path d="M112.417 51.1644C112.749 49.812 112.922 48.4331 112.922 47.0145C112.922 42.8381 111.395 38.9003 108.766 35.4796L104.731 39.6428C108.607 42.8646 111.355 46.8156 112.404 51.1644H112.417Z" fill="#98989A"/>
<path d="M119.998 90.7277L110.453 81.5661C108.926 82.6135 107.293 83.5681 105.581 84.4564L119.998 98.285L164.458 52.0395L164.405 44.5485L119.998 90.7277Z" fill="#98989A"/>
<path d="M87.5919 59.6763L79.7328 52.1323L73.7189 46.3914L73.6924 53.8824L82.1489 61.9966L90.2337 69.7528C92.2915 69.2357 94.2562 68.5993 96.1015 67.8303L87.5919 59.6631V59.6763Z" fill="#98989A"/>
<path d="M118.511 17.8458L112.178 24.4353L105.195 31.7009L100.443 36.6463L91.4287 46.0201L95.199 49.6396L104.797 39.6693L108.806 35.4928L116.161 27.856L118.511 25.4031L142.951 48.8043L146.735 44.8931L118.511 17.8458Z" fill="#98989A"/>
<path d="M116.161 27.8561L108.806 35.493C111.435 38.9136 112.935 42.8381 112.935 47.0146C112.935 48.4332 112.749 49.8121 112.43 51.1645C111.567 54.6779 109.642 57.9263 106.894 60.7503C104.08 63.6274 100.403 66.0537 96.1279 67.8303C94.2826 68.5993 92.3178 69.2357 90.2601 69.7528C86.7686 70.6146 83.0249 71.0919 79.1219 71.0919C74.3161 71.0919 69.736 70.376 65.5941 69.0899C59.9519 67.3265 55.1064 64.5157 51.5751 60.989C50.2873 59.7029 49.1722 58.324 48.2562 56.8656C47.1277 55.0757 46.2914 53.1665 45.8002 51.1645C45.4683 49.8121 45.2957 48.4332 45.2957 47.0146C45.2957 45.1584 45.6011 43.342 46.1586 41.6051L37.7154 33.0667C34.6222 37.6408 32.8831 42.7984 32.8831 48.2741C32.8831 49.6795 33.0158 51.0584 33.2415 52.424C33.7858 55.7254 34.9673 58.8809 36.6931 61.8243C37.5561 63.3092 38.565 64.7279 39.6934 66.0935C42.6671 69.6733 46.4905 72.8155 50.9777 75.3612C58.7704 79.7895 68.528 82.4279 79.1351 82.4279C86.5562 82.4279 93.5524 81.1418 99.7654 78.8481C101.651 78.1587 103.456 77.3632 105.182 76.5014C109.191 74.4728 112.736 72.0068 115.696 69.1827C120.674 64.4362 123.993 58.6953 125.015 52.4373C125.241 51.0716 125.361 49.6928 125.361 48.2874C125.361 40.624 121.949 33.5572 116.174 27.8561H116.161Z" fill="white"/>
<path d="M87.5516 59.7293L96.0347 67.87C100.309 66.0933 104.013 63.6936 106.841 60.8165L95.2117 49.6661L91.4281 46.0466L100.402 36.7126L105.155 31.7672L112.138 24.5015L118.47 17.9254L146.628 44.9196L142.844 48.8573L119.771 72.8419C117.342 76.1698 114.196 79.1264 110.465 81.672L119.944 90.8071L164.404 44.5616L118.112 0.145752L100.774 18.1773L93.831 25.3899L87.4454 32.0324L73.7185 46.378L87.5649 59.716L87.5516 59.7293Z" fill="#0066B3"/>
<path d="M48.4284 57.1042C48.4284 57.1042 48.6541 57.4754 48.6807 57.5152C49.3577 58.5892 50.287 59.5835 51.1765 60.5647L65.0096 54.1873L33.2279 24.621L32.365 29.1951L57.2965 53.8559L48.4417 57.1175L48.4284 57.1042Z" fill="#98989A"/>
<path d="M125.348 48.2874C125.348 49.6927 125.215 51.0716 125.003 52.4373C123.981 58.6952 120.649 64.4362 115.684 69.1827C112.723 72.0067 109.165 74.4861 105.169 76.5014C103.443 77.3764 101.638 78.1587 99.7528 78.8481C93.5399 81.1418 86.5437 82.4279 79.1226 82.4279C68.5154 82.4279 58.7579 79.7895 50.9651 75.3611C46.478 72.8155 42.6414 69.6733 39.6809 66.0935C38.5525 64.7278 37.5435 63.3092 36.6806 61.8242C34.9548 58.8809 33.7733 55.7254 33.229 52.424C33.0033 51.0584 32.8705 49.6795 32.8705 48.2741C32.8705 47.8366 32.9104 47.399 32.9236 46.9615C32.9236 46.935 32.9236 46.9085 32.9104 46.882C32.6847 48.2476 32.8705 55.1685 32.8705 56.5739C32.8705 58.8013 33.1626 60.9757 33.7202 63.0838C34.145 64.7278 34.7424 66.3321 35.4726 67.8834C37.3311 71.7946 40.119 75.3744 43.637 78.4901C52.1201 85.9679 64.8647 90.7277 79.1093 90.7277C88.9996 90.7277 98.1465 88.434 105.66 84.536C107.373 83.6477 108.993 82.6798 110.519 81.6456C114.25 79.1 117.396 76.1036 119.826 72.7757C123.344 67.9629 125.348 62.4474 125.348 56.5872C125.348 55.3541 125.454 49.4939 125.348 47.1604C125.322 46.8422 125.348 47.8763 125.348 48.2874Z" fill="#98989A"/>
<path d="M125.188 95.6466H124.312V95.3284H126.449V95.6466H125.56V98.2187H125.188V95.6466Z" fill="#98989A"/>
<path d="M129.118 96.946C129.104 96.5482 129.078 96.0577 129.078 95.6997H129.065C128.972 96.0311 128.839 96.4024 128.706 96.8001L128.188 98.2055H127.91L127.445 96.8266C127.312 96.4156 127.193 96.0444 127.113 95.6997C127.113 96.0577 127.086 96.5482 127.06 96.9725L126.98 98.2055H126.622L126.821 95.3152H127.299L127.79 96.7073C127.91 97.0653 128.002 97.3835 128.082 97.6752C128.162 97.3835 128.255 97.0653 128.387 96.7073L128.905 95.3152H129.383L129.569 98.2055H129.211L129.131 96.9327L129.118 96.946Z" fill="#98989A"/>
</g>
<defs>
<clipPath id="clip0_5_39">
<rect width="164.444" height="98.285" fill="white"/>
</clipPath>
</defs>
</svg>
